# xmcd CD database file
#
# Track frame offsets:
#	150
#	26801
#	51105
#	77272
#	97772
#	114263
#	136971
#	151773
#	168752
#	188677
#	216286
#	236351
#	264308
#	285996
#	315228
#	344495
#
# Disc length: 4754 seconds
#
# Revision: 0
# Processed by: cddbd v1.5.1PL2 Copyright (c) Steve Scherf et al.
# Submitted via: Feurio! 1.68 - http://www.feurio.com
#
DISCID=be129010
DTITLE=Stevie Whalley - January 2005
DYEAR=1900
DGENRE=
TTITLE0=Loves Rain
TTITLE1=Whenever I'm near you
TTITLE2=Ships
TTITLE3=The Scrapper
TTITLE4=Cool clean Water
TTITLE5=The Gain
TTITLE6=The Awakening
TTITLE7=Somethin' i said
TTITLE8=Low Ryder
TTITLE9=Po' Lazarus
TTITLE10=Holy Moly
TTITLE11=Short Skirt
TTITLE12=The risin' Sun
TTITLE13=Once i had a Heart
TTITLE14=Electra
TTITLE15=Sailors Darlin
EXTD=
EXTT0=
EXTT1=
EXTT2=
EXTT3=
EXTT4=
EXTT5=
EXTT6=
EXTT7=
EXTT8=
EXTT9=
EXTT10=
EXTT11=
EXTT12=
EXTT13=
EXTT14=
EXTT15=
PLAYORDER=
